<?xml version="1.0" encoding="UTF-8"?>
<svg xmlns="http://www.w3.org/2000/svg" xmlns:xlink="http://www.w3.org/1999/xlink" viewBox="0 0 4001 4001">
  <defs>
    <style>
      .uuid-570ead88-bf7f-4a28-bb8a-8e2d3c20f340 {
        fill: url(#uuid-1dbaf467-1783-4311-9c5e-b5bdeeeae35a);
      }

      .uuid-570ead88-bf7f-4a28-bb8a-8e2d3c20f340, .uuid-1392fe2e-b35d-4de4-a67e-934813b0d77f, .uuid-5f5d53ab-76eb-4b42-b68f-7a418fc526e2, .uuid-32e12e42-d0df-4c70-b6c9-65f63bc703fc, .uuid-ca6682d6-177e-47c0-b09c-833e7af73f90, .uuid-c51e14dc-4508-4238-b104-d11e720cc139, .uuid-49cba57e-caf1-4506-b40f-b78acb442371, .uuid-45230fd9-9dc2-4e4c-b37c-770a2c85f3fa, .uuid-5829f293-2f06-48db-af24-ccacdd249a0e, .uuid-e9f31e74-8a29-4da0-b6b4-95b8a5acf048, .uuid-b513c927-f892-4950-9885-d9a58ffab7c6, .uuid-d4d5f2a1-41e5-4c8f-865f-0e9b00b5b7fc, .uuid-7d5de55c-bc7d-47db-b9e9-47086ec3a17b, .uuid-e99348b6-6c5b-4cdc-b190-c9127a1f4c7c, .uuid-436f99f5-1919-4463-b07a-776e0b17c4a0, .uuid-687cea37-c08c-4b44-98ff-0cbf331d71fa, .uuid-f7adf722-e15d-4f18-b0c1-f81e71a30f92, .uuid-555baa79-b3a0-4b41-b58b-144cdd07c0e5, .uuid-fc32a9f2-2bc2-46fe-bea0-3b942085b329, .uuid-32b54033-f2ef-4155-9fa4-cd1bb01f560d, .uuid-74afdd4c-c6a8-4f64-9d76-4b3dde51006e, .uuid-9166d691-5718-4b13-96d1-357aade85f20, .uuid-f4c97135-79f1-4fb9-81f0-2d57875a5565, .uuid-2a508723-7cb6-4223-af39-1d04860eb59f, .uuid-f966db98-9032-45b5-9991-11ba838db56f {
        stroke-width: 0px;
      }

      .uuid-570ead88-bf7f-4a28-bb8a-8e2d3c20f340, .uuid-32e12e42-d0df-4c70-b6c9-65f63bc703fc, .uuid-c51e14dc-4508-4238-b104-d11e720cc139, .uuid-49cba57e-caf1-4506-b40f-b78acb442371, .uuid-7d5de55c-bc7d-47db-b9e9-47086ec3a17b, .uuid-555baa79-b3a0-4b41-b58b-144cdd07c0e5 {
        mix-blend-mode: multiply;
      }

      .uuid-1392fe2e-b35d-4de4-a67e-934813b0d77f {
        fill: url(#uuid-63bf2244-5263-4dc8-b873-6a4a0eb661ea);
      }

      .uuid-a02352bd-ca73-4f3b-a2b6-07c3f9c0fbf4, .uuid-5f5d53ab-76eb-4b42-b68f-7a418fc526e2, .uuid-ca6682d6-177e-47c0-b09c-833e7af73f90, .uuid-45230fd9-9dc2-4e4c-b37c-770a2c85f3fa, .uuid-e9f31e74-8a29-4da0-b6b4-95b8a5acf048, .uuid-b513c927-f892-4950-9885-d9a58ffab7c6, .uuid-f7adf722-e15d-4f18-b0c1-f81e71a30f92, .uuid-fc32a9f2-2bc2-46fe-bea0-3b942085b329, .uuid-32b54033-f2ef-4155-9fa4-cd1bb01f560d, .uuid-74afdd4c-c6a8-4f64-9d76-4b3dde51006e, .uuid-9166d691-5718-4b13-96d1-357aade85f20, .uuid-f4c97135-79f1-4fb9-81f0-2d57875a5565, .uuid-f966db98-9032-45b5-9991-11ba838db56f {
        fill-rule: evenodd;
      }

      .uuid-a02352bd-ca73-4f3b-a2b6-07c3f9c0fbf4, .uuid-ca6682d6-177e-47c0-b09c-833e7af73f90, .uuid-2a508723-7cb6-4223-af39-1d04860eb59f {
        fill: #990d53;
      }

      .uuid-2a0468ff-6b4e-45e4-897c-43134021bb08 {
        mask: url(#uuid-f7891742-15fa-4be0-b646-41183a171420);
      }

      .uuid-5f5d53ab-76eb-4b42-b68f-7a418fc526e2 {
        fill: url(#uuid-683f9234-0a9d-49f1-ab50-b59559b2e127);
      }

      .uuid-d9ecb605-f731-4886-b1ee-6a930577088f {
        filter: url(#uuid-7fb7260d-6172-4ac5-a5f6-f7f129cd479e);
      }

      .uuid-32e12e42-d0df-4c70-b6c9-65f63bc703fc {
        fill: url(#uuid-cb8f4929-fbb4-4e0e-ba77-bbe52eff30fc);
      }

      .uuid-7185f6f7-76c9-4c31-9b68-997d168e4f53 {
        filter: url(#uuid-8e66fb59-5eaf-414b-8a9e-2aa70f2770f7);
      }

      .uuid-03dff918-d42b-4f9c-b89a-cc69598abe41 {
        mask: url(#uuid-519310c8-ee40-468e-8fae-f83f7dc5441e);
      }

      .uuid-c51e14dc-4508-4238-b104-d11e720cc139 {
        fill: url(#uuid-140090fc-fc0a-42fe-958f-9d6bc4aa7fc4);
      }

      .uuid-13ffd730-13d8-4ee5-8fad-dac835cc2be1 {
        mask: url(#uuid-a3a5ac46-da1f-4afa-9b9c-8c9e5d234a58);
      }

      .uuid-49cba57e-caf1-4506-b40f-b78acb442371 {
        fill: url(#uuid-fe9137d0-1cbf-4284-b85c-d473aef1aec2);
      }

      .uuid-663cbbd3-08fb-45bf-86e9-10ba7c644811 {
        fill: #000616;
        stroke: #231f20;
        stroke-miterlimit: 10;
      }

      .uuid-45230fd9-9dc2-4e4c-b37c-770a2c85f3fa {
        fill: url(#uuid-719e9a78-3992-4ce0-80b8-0ab75556d6e4);
      }

      .uuid-c3f1453e-fb4e-40dc-a6f7-7ced1ee1b9e1 {
        mask: url(#uuid-8f31b5e6-def3-4311-a023-0f8f464a63de);
      }

      .uuid-5829f293-2f06-48db-af24-ccacdd249a0e {
        fill: url(#uuid-9f7b6f33-71fc-4f6e-9ed6-1f1912d6982b);
      }

      .uuid-e9f31e74-8a29-4da0-b6b4-95b8a5acf048 {
        fill: #70ebf6;
      }

      .uuid-3700bd22-70e1-4509-9f77-bb582579210f {
        mask: url(#uuid-e147eeac-6805-4557-b303-208d2a866a04);
      }

      .uuid-b513c927-f892-4950-9885-d9a58ffab7c6 {
        fill: #fcc25b;
      }

      .uuid-07ed26ad-3b4f-4e99-b848-396cc38fb45d {
        mask: url(#uuid-1b81bff7-55bb-4635-865b-fc4b1caf17d8);
      }

      .uuid-d4d5f2a1-41e5-4c8f-865f-0e9b00b5b7fc {
        fill: url(#uuid-01fea4a5-4b13-4d25-a8b2-cfd7384fa7fc);
      }

      .uuid-7d5de55c-bc7d-47db-b9e9-47086ec3a17b {
        fill: url(#uuid-2d737e1f-2dea-480f-80c4-d0245638533a);
      }

      .uuid-e99348b6-6c5b-4cdc-b190-c9127a1f4c7c {
        fill: url(#uuid-30361181-aba7-41c2-8274-9afb5711133b);
      }

      .uuid-436f99f5-1919-4463-b07a-776e0b17c4a0 {
        fill: url(#uuid-0398c81f-fea3-4f69-a07e-725fff03b67b);
      }

      .uuid-b6721f75-4f95-4e03-a867-ab9d8d8270ca {
        filter: url(#uuid-c8eda19c-dd8d-4b16-a48b-022b516af237);
      }

      .uuid-687cea37-c08c-4b44-98ff-0cbf331d71fa {
        fill: url(#uuid-8a4e34fa-cccf-4736-a4df-bf5541e52935);
      }

      .uuid-f7adf722-e15d-4f18-b0c1-f81e71a30f92 {
        fill: url(#uuid-5c015daf-1714-40de-a73c-8b28cb2a7102);
      }

      .uuid-e59fc7d6-cf9d-4d5b-bfb6-d02e1b582609 {
        mask: url(#uuid-3d30a0b3-7693-4080-ae86-681ae2661f3c);
      }

      .uuid-c9f37c7d-81a6-4464-845b-5f5c21411a59 {
        mask: url(#uuid-918b48c5-2aca-4d82-aafe-35dec55851cd);
      }

      .uuid-555baa79-b3a0-4b41-b58b-144cdd07c0e5 {
        fill: url(#uuid-1254d90d-b576-4d96-91b1-314e062b1a5d);
      }

      .uuid-cdd4c312-4a6d-404d-bb82-e553b57de9de {
        mask: url(#uuid-eace1ff5-09a6-4fc5-85f6-3656ca3ddf4d);
      }

      .uuid-fc32a9f2-2bc2-46fe-bea0-3b942085b329 {
        fill: url(#uuid-d7eedfd0-9778-41f6-b0d0-9a1e300c0eae);
      }

      .uuid-57b7c466-927d-4cda-a7ca-cfb701cf316b {
        clip-path: url(#uuid-c21bd34f-6e81-4fb4-a91e-85d5ade7efe1);
      }

      .uuid-32b54033-f2ef-4155-9fa4-cd1bb01f560d {
        fill: url(#uuid-bf1257b3-f0f2-4820-9499-abc29ab77d95);
      }

      .uuid-74afdd4c-c6a8-4f64-9d76-4b3dde51006e {
        fill: url(#uuid-e177ae9a-c407-41b0-8dda-d04ef4f27fcb);
      }

      .uuid-5a01d641-7f64-4a05-854b-702216bcd162 {
        mask: url(#uuid-c4c47e61-4ead-4172-9736-87aceb83bf28);
      }

      .uuid-9166d691-5718-4b13-96d1-357aade85f20 {
        fill: url(#uuid-8878f379-0284-446f-bd1c-6438c14e4799);
      }

      .uuid-f4c97135-79f1-4fb9-81f0-2d57875a5565 {
        fill: #770372;
      }

      .uuid-0941fb34-9b7d-4dfc-9928-da3f43864cd4 {
        filter: url(#uuid-e06254f2-c123-4b99-8079-0e03b5362d0f);
      }

      .uuid-2a508723-7cb6-4223-af39-1d04860eb59f {
        clip-rule: evenodd;
      }

      .uuid-d0172fb0-b8ed-4a37-9204-434e2affdd89 {
        filter: url(#uuid-cec2ce33-de27-49e8-9ede-53fa9fb30898);
      }

      .uuid-8f99a74c-964f-4590-93ec-29c2af876723 {
        mask: url(#uuid-80bf176c-f7d0-48f5-99ca-5b7315aa6d6c);
      }

      .uuid-85a09ba2-899d-4391-bdc2-f738c5fb3b80 {
        mask: url(#uuid-dff8ecc5-b4e2-4656-8ca9-b99891e0dd73);
      }

      .uuid-f966db98-9032-45b5-9991-11ba838db56f {
        fill: #de5aee;
      }

      .uuid-f76eb63c-d537-4789-9981-8dd5a4aaefd3 {
        filter: url(#uuid-ed1be5eb-14bc-40f1-8832-403d38f27ede);
      }
    </style>
    <radialGradient id="uuid-5c015daf-1714-40de-a73c-8b28cb2a7102" cx="2840.45" cy="1917.36" fx="2840.45" fy="1917.36" r="1554.18" gradientUnits="userSpaceOnUse">
      <stop offset="0" stop-color="#fff"/>
      <stop offset=".12" stop-color="#00c2f0"/>
      <stop offset="1" stop-color="#1a3b6e"/>
    </radialGradient>
    <radialGradient id="uuid-8878f379-0284-446f-bd1c-6438c14e4799" cx="3131.11" cy="2669.66" fx="3131.11" fy="2669.66" r="1308.42" xlink:href="#uuid-5c015daf-1714-40de-a73c-8b28cb2a7102"/>
    <linearGradient id="uuid-e177ae9a-c407-41b0-8dda-d04ef4f27fcb" x1="2487.5" y1="3344.44" x2="1447.07" y2="1009.12" gradientUnits="userSpaceOnUse">
      <stop offset=".01" stop-color="#fdc60b"/>
      <stop offset=".28" stop-color="#ed693c"/>
      <stop offset=".76" stop-color="#bd1e54"/>
      <stop offset="1" stop-color="#940084"/>
    </linearGradient>
    <clipPath id="uuid-c21bd34f-6e81-4fb4-a91e-85d5ade7efe1">
      <path class="uuid-2a508723-7cb6-4223-af39-1d04860eb59f" d="m1864.03,1814.58c-19.66-41.48-41.48-89.53-56.78-123.37l72.05-112.43c18.56,37.11,39.3,77.48,61.14,120.08-41.49-12.01-66.59,39.28-76.42,115.72h0Z"/>
    </clipPath>
    <filter id="uuid-ed1be5eb-14bc-40f1-8832-403d38f27ede" x="2272.65" y="2618.38" width="74.16" height="411.28" color-interpolation-filters="sRGB" filterUnits="userSpaceOnUse">
      <feFlood flood-color="#fff" result="bg"/>
      <feBlend in="SourceGraphic" in2="bg"/>
    </filter>
    <filter id="uuid-02a3cca2-29f6-49a0-96cb-659167a5a17a" x="2272.65" y="-10192" width="74.16" height="32766" color-interpolation-filters="sRGB" filterUnits="userSpaceOnUse">
      <feFlood flood-color="#fff" result="bg"/>
      <feBlend in="SourceGraphic" in2="bg"/>
    </filter>
    <mask id="uuid-1b81bff7-55bb-4635-865b-fc4b1caf17d8" data-name="mask-1" x="2272.65" y="-10192" width="74.16" height="32766" maskUnits="userSpaceOnUse"/>
    <radialGradient id="uuid-2d737e1f-2dea-480f-80c4-d0245638533a" data-name="New Gradient Swatch 26" cx="2309.73" cy="2824.02" fx="2309.73" fy="2824.02" r="244.79" gradientUnits="userSpaceOnUse">
      <stop offset="0" stop-color="#fff"/>
      <stop offset=".27" stop-color="gray"/>
      <stop offset="1" stop-color="#000"/>
    </radialGradient>
    <mask id="uuid-e147eeac-6805-4557-b303-208d2a866a04" data-name="mask" x="2272.65" y="2618.38" width="74.16" height="411.28" maskUnits="userSpaceOnUse">
      <g class="uuid-f76eb63c-d537-4789-9981-8dd5a4aaefd3">
        <g class="uuid-07ed26ad-3b4f-4e99-b848-396cc38fb45d">
          <path class="uuid-7d5de55c-bc7d-47db-b9e9-47086ec3a17b" d="m2324.25,3029.66s.4-1.61,1.14-4.62c.19-.75.41-1.59.64-2.51.24-.92.5-1.93.72-3.03.46-2.2,1.01-4.71,1.63-7.5.53-2.82,1.12-5.95,1.76-9.35.51-3.43,1.16-7.1,1.69-11.05.45-3.97,1.11-8.14,1.46-12.6.19-2.23.46-4.49.64-6.83.16-2.33.32-4.72.49-7.16.19-2.44.25-4.94.38-7.48.1-2.54.26-5.12.26-7.76.05-2.63.1-5.31.15-8.03-.02-2.72-.04-5.48-.06-8.28-.17-11.19-.64-22.98-1.62-35.16-.19-3.05-.56-6.11-.81-9.2-.14-1.54-.27-3.09-.41-4.65-.17-1.55-.34-3.11-.51-4.68-.36-3.13-.65-6.27-1.07-9.43-.4-3.16-.79-6.33-1.19-9.51-.41-3.18-.91-6.37-1.36-9.57-.23-1.6-.47-3.2-.7-4.81-.25-1.6-.51-3.21-.76-4.81-.52-3.21-.99-6.43-1.55-9.65-.57-3.21-1.14-6.43-1.71-9.65-2.32-12.86-4.86-25.69-7.61-38.29-.68-3.15-1.34-6.29-2.08-9.4-.7-3.12-1.4-6.22-2.09-9.3-1.46-6.15-2.91-12.23-4.33-18.21-2.95-11.94-5.84-23.48-8.74-34.4-1.43-5.46-2.82-10.78-4.24-15.91-1.39-5.13-2.7-10.11-4.04-14.86-1.31-4.76-2.57-9.33-3.77-13.67-1.21-4.34-2.36-8.46-3.45-12.33-2.16-7.74-4.1-14.48-5.61-20.07-1.6-5.55-2.77-9.95-3.6-12.94-.8-3-1.23-4.6-1.23-4.6,0,0,.71,1.5,2.03,4.31,1.29,2.82,3.24,6.94,5.6,12.23,2.31,5.31,5.13,11.75,8.21,19.21,1.51,3.74,3.13,7.72,4.83,11.91,1.68,4.2,3.34,8.66,5.13,13.3,3.5,9.3,7.16,19.42,10.79,30.22,3.65,10.79,7.25,22.26,10.75,34.21,3.44,11.96,6.84,24.38,9.82,37.12,3.12,12.71,5.73,25.76,8.17,38.85,2.34,13.11,4.27,26.31,5.76,39.35.34,3.27.68,6.52,1.01,9.76.32,3.24.52,6.48.78,9.69.12,1.61.24,3.21.37,4.8.09,1.6.17,3.19.26,4.78.08,1.59.16,3.17.24,4.75.08,1.58.15,3.15.18,4.71.08,3.13.16,6.24.23,9.31.04,3.08,0,6.13-.01,9.14.01,3.01-.1,6-.19,8.95-.1,2.95-.15,5.86-.37,8.73-.56,11.48-1.86,22.3-3.32,32.21-.41,2.47-.81,4.89-1.21,7.26-.41,2.36-.91,4.66-1.36,6.89-.46,2.24-.89,4.42-1.43,6.52-.51,2.1-1.01,4.14-1.49,6.11-.47,1.97-1.07,3.86-1.57,5.69-.52,1.83-1.02,3.58-1.53,5.26-1.11,3.34-2.1,6.4-3.07,9.15-1.03,2.73-1.97,5.16-2.79,7.26-.39,1.06-.82,2-1.2,2.88-.38.87-.73,1.67-1.04,2.38-1.26,2.83-1.94,4.35-1.94,4.35Z"/>
        </g>
      </g>
    </mask>
    <radialGradient id="uuid-30361181-aba7-41c2-8274-9afb5711133b" data-name="New Gradient Swatch 22" cx="2309.73" cy="2824.02" fx="2309.73" fy="2824.02" r="244.79" gradientUnits="userSpaceOnUse">
      <stop offset="0" stop-color="#fff"/>
      <stop offset=".27" stop-color="#fff"/>
      <stop offset="1" stop-color="#fff"/>
    </radialGradient>
    <filter id="uuid-c8eda19c-dd8d-4b16-a48b-022b516af237" x="1843.75" y="3018.71" width="211.24" height="113.36" color-interpolation-filters="sRGB" filterUnits="userSpaceOnUse">
      <feFlood flood-color="#fff" result="bg"/>
      <feBlend in="SourceGraphic" in2="bg"/>
    </filter>
    <filter id="uuid-a2d742f7-7d81-4436-8441-e4dc2445c6b6" x="1843.75" y="-10192" width="211.24" height="32766" color-interpolation-filters="sRGB" filterUnits="userSpaceOnUse">
      <feFlood flood-color="#fff" result="bg"/>
      <feBlend in="SourceGraphic" in2="bg"/>
    </filter>
    <mask id="uuid-f7891742-15fa-4be0-b646-41183a171420" data-name="mask-3" x="1843.75" y="-10192" width="211.24" height="32766" maskUnits="userSpaceOnUse"/>
    <radialGradient id="uuid-1254d90d-b576-4d96-91b1-314e062b1a5d" data-name="New Gradient Swatch 25" cx="1955.59" cy="3033.42" fx="1955.59" fy="3033.42" r="166.81" gradientUnits="userSpaceOnUse">
      <stop offset="0" stop-color="#fff"/>
      <stop offset=".27" stop-color="gray"/>
      <stop offset="1" stop-color="#000"/>
    </radialGradient>
    <mask id="uuid-c4c47e61-4ead-4172-9736-87aceb83bf28" data-name="mask-2" x="1843.75" y="3018.71" width="211.24" height="113.36" maskUnits="userSpaceOnUse">
      <g class="uuid-b6721f75-4f95-4e03-a867-ab9d8d8270ca">
        <g class="uuid-2a0468ff-6b4e-45e4-897c-43134021bb08">
          <path class="uuid-555baa79-b3a0-4b41-b58b-144cdd07c0e5" d="m1843.75,3091.8s.35-1.1,1.07-3.12c.36-1.01.79-2.27,1.39-3.72.59-1.45,1.22-3.17,2.09-4.99.43-.92.87-1.89,1.34-2.91.47-1.02,1.04-2.04,1.59-3.14,1.08-2.21,2.47-4.47,3.91-6.94,2.99-4.86,6.76-10.15,11.49-15.48,4.72-5.34,10.52-10.62,17.31-15.42,3.4-2.39,7.07-4.63,10.98-6.64,1.93-1.06,3.97-1.95,6.02-2.88,2.08-.85,4.18-1.73,6.36-2.46,4.33-1.53,8.86-2.78,13.52-3.64,4.66-.89,9.44-1.48,14.27-1.68,9.67-.4,19.55.6,29.06,2.93,4.75,1.19,9.42,2.65,13.95,4.43,4.53,1.75,8.89,3.86,13.1,6.12,8.4,4.58,16.02,10.14,22.73,16.18,1.64,1.54,3.3,3.04,4.84,4.64.77.79,1.57,1.54,2.3,2.36.74.81,1.47,1.61,2.19,2.41,2.84,3.26,5.54,6.5,7.91,9.84.59.84,1.2,1.65,1.76,2.48.56.84,1.11,1.67,1.66,2.5.56.82,1.09,1.65,1.59,2.48.51.83,1.01,1.66,1.51,2.47.96,1.66,1.86,3.31,2.76,4.92.83,1.65,1.69,3.23,2.45,4.84,3.04,6.39,5.33,12.42,6.97,17.87.43,1.35.77,2.69,1.13,3.96.18.64.35,1.26.52,1.88.15.62.29,1.23.43,1.83.27,1.19.54,2.33.79,3.43.21,1.1.41,2.15.6,3.15.4,1.98.63,3.78.85,5.33.23,1.55.37,2.87.47,3.95.12,1.07.18,1.9.23,2.45.05.55.07.84.07.84,0,0-.11-.27-.31-.78-.2-.52-.52-1.28-.9-2.29-.38-1-.85-2.24-1.46-3.66-.62-1.42-1.25-3.08-2.08-4.88-.4-.9-.82-1.86-1.26-2.86-.47-.99-.95-2.02-1.46-3.09-.5-1.08-1.04-2.19-1.63-3.32-.59-1.14-1.15-2.33-1.81-3.52-.65-1.2-1.32-2.43-2.01-3.7-.72-1.24-1.47-2.53-2.23-3.84-.79-1.29-1.61-2.62-2.44-3.97-.84-1.35-1.77-2.68-2.67-4.06-3.69-5.49-8.06-11.13-13.08-16.66-4.99-5.56-10.73-10.92-17.03-15.91-3.21-2.43-6.48-4.85-9.96-7.06-.86-.57-1.76-1.08-2.63-1.62l-1.33-.8-1.36-.76c-1.78-1.06-3.63-2.01-5.48-2.98-7.48-3.69-15.38-6.79-23.57-8.71-4.07-1.03-8.2-1.81-12.35-2.26-4.14-.45-8.29-.75-12.41-.71-1.03.03-2.05.06-3.08.09-1.03.02-2.04.14-3.06.19-1.02.04-2.03.15-3.04.26-1.01.11-2.02.19-3.02.36-4.01.52-7.91,1.39-11.72,2.39-1.91.48-3.77,1.11-5.62,1.7-.91.33-1.82.67-2.72,1-.91.31-1.8.67-2.68,1.04-.88.37-1.78.7-2.63,1.1-.86.4-1.72.79-2.57,1.19-.86.38-1.67.85-2.5,1.26-.82.43-1.66.82-2.45,1.29-.8.45-1.6.9-2.39,1.34-.79.44-1.54.95-2.31,1.41-1.55.92-2.98,1.95-4.45,2.91-1.45.97-2.81,2.03-4.19,3.02-1.32,1.06-2.64,2.09-3.9,3.13-5.04,4.19-9.36,8.49-13.03,12.49-3.63,4.04-6.67,7.74-9.06,10.9-2.37,3.16-4.26,5.66-5.45,7.46-1.22,1.77-1.9,2.7-1.9,2.7Z"/>
        </g>
      </g>
    </mask>
    <radialGradient id="uuid-63bf2244-5263-4dc8-b873-6a4a0eb661ea" data-name="New Gradient Swatch 22" cx="1955.59" cy="3033.42" fx="1955.59" fy="3033.42" r="166.81" xlink:href="#uuid-30361181-aba7-41c2-8274-9afb5711133b"/>
    <radialGradient id="uuid-683f9234-0a9d-49f1-ab50-b59559b2e127" cx="1889.39" cy="2016.82" fx="1889.39" fy="2016.82" r="1317.78" gradientUnits="userSpaceOnUse">
      <stop offset="0" stop-color="#fff"/>
      <stop offset=".4" stop-color="#01bae9"/>
      <stop offset=".46" stop-color="#00c2f0"/>
      <stop offset="1" stop-color="#1a3b6e"/>
    </radialGradient>
    <filter id="uuid-cec2ce33-de27-49e8-9ede-53fa9fb30898" x="2418.32" y="2075.55" width="65.26" height="254.85" color-interpolation-filters="sRGB" filterUnits="userSpaceOnUse">
      <feFlood flood-color="#fff" result="bg"/>
      <feBlend in="SourceGraphic" in2="bg"/>
    </filter>
    <filter id="uuid-7f2ed024-3b74-4fad-8270-ebb273bae813" x="2418.32" y="-10192" width="65.26" height="32766" color-interpolation-filters="sRGB" filterUnits="userSpaceOnUse">
      <feFlood flood-color="#fff" result="bg"/>
      <feBlend in="SourceGraphic" in2="bg"/>
    </filter>
    <mask id="uuid-3d30a0b3-7693-4080-ae86-681ae2661f3c" data-name="mask-5" x="2418.32" y="-10192" width="65.26" height="32766" maskUnits="userSpaceOnUse"/>
    <radialGradient id="uuid-140090fc-fc0a-42fe-958f-9d6bc4aa7fc4" cx="2466.1" cy="2191.32" fx="2466.1" fy="2191.32" r="131.2" gradientUnits="userSpaceOnUse">
      <stop offset="0" stop-color="#fff"/>
      <stop offset="1" stop-color="#000"/>
    </radialGradient>
    <mask id="uuid-dff8ecc5-b4e2-4656-8ca9-b99891e0dd73" data-name="mask-4" x="2418.32" y="2075.55" width="65.26" height="254.85" maskUnits="userSpaceOnUse">
      <g class="uuid-d0172fb0-b8ed-4a37-9204-434e2affdd89">
        <g class="uuid-e59fc7d6-cf9d-4d5b-bfb6-d02e1b582609">
          <path class="uuid-c51e14dc-4508-4238-b104-d11e720cc139" d="m2477.58,2330.4s0-1.05,0-3.02c.03-1.96.01-4.85.1-8.52.04-1.83.08-3.86.12-6.07-.02-2.2-.04-4.58-.06-7.13-.01-2.54-.03-5.23-.04-8.08.04-2.83-.1-5.83-.21-8.95-.1-3.12-.2-6.36-.31-9.72-.03-1.68-.15-3.38-.27-5.11-.11-1.73-.23-3.48-.34-5.26-.11-1.78-.22-3.58-.33-5.4-.05-.91-.11-1.83-.16-2.75-.05-.92-.18-1.85-.26-2.78-.39-3.72-.73-7.52-1.1-11.38-.09-.96-.18-1.93-.27-2.91-.13-.97-.26-1.94-.39-2.92-.26-1.95-.52-3.92-.78-5.89-.54-3.95-.98-7.96-1.74-11.96-.68-4.01-1.37-8.04-2.06-12.1-.85-4.02-1.71-8.06-2.56-12.09l-.62-3.03c-.2-1.01-.49-2-.73-3-.51-2-1.01-3.99-1.52-5.98-.5-1.99-1-3.98-1.49-5.97-.23-1-.52-1.97-.81-2.95-.29-.98-.58-1.95-.87-2.92-.58-1.95-1.15-3.88-1.72-5.81-.58-1.93-1.07-3.87-1.71-5.76-1.28-3.77-2.54-7.5-3.78-11.17-.31-.92-.61-1.83-.92-2.74-.31-.91-.68-1.79-1.02-2.68-.68-1.78-1.36-3.54-2.03-5.28-.66-1.75-1.32-3.47-1.97-5.18-.33-.85-.63-1.71-.99-2.54-.36-.83-.71-1.65-1.06-2.46-1.4-3.27-2.76-6.46-4.07-9.54-.33-.77-.65-1.54-.97-2.3-.35-.74-.71-1.48-1.05-2.21-.7-1.46-1.38-2.89-2.05-4.3-1.32-2.82-2.59-5.53-3.8-8.1-1.31-2.52-2.55-4.92-3.72-7.17-1.16-2.26-2.26-4.37-3.24-6.34-.48-1-1.01-1.9-1.5-2.78-.49-.88-.97-1.72-1.41-2.51-1.8-3.18-3.16-5.73-4.11-7.45-.93-1.73-1.43-2.66-1.43-2.66,0,0,.65.82,1.87,2.36,1.2,1.55,3.01,3.81,5.22,6.74.56.73,1.14,1.5,1.76,2.31.61.81,1.28,1.64,1.89,2.57,1.27,1.82,2.6,3.81,4.04,5.93,1.43,2.13,2.95,4.4,4.56,6.79,1.48,2.47,3.02,5.07,4.64,7.79.8,1.36,1.62,2.76,2.46,4.18.42.71.84,1.43,1.26,2.15.39.74.78,1.49,1.18,2.25,1.57,3.03,3.19,6.17,4.86,9.39.41.81.83,1.62,1.25,2.44.42.82.77,1.68,1.16,2.52.77,1.7,1.54,3.42,2.32,5.16.78,1.74,1.56,3.5,2.36,5.28.39.89.81,1.78,1.17,2.69.35.92.71,1.84,1.07,2.76,1.41,3.71,2.85,7.48,4.31,11.3,1.36,3.85,2.57,7.81,3.84,11.78.32.99.63,1.99.95,2.98.32,1,.64,2,.9,3.01.53,2.03,1.07,4.06,1.61,6.1.53,2.04,1.06,4.09,1.6,6.13.25,1.03.56,2.04.77,3.08l.66,3.11c.85,4.15,1.7,8.3,2.54,12.43.68,4.16,1.27,8.32,1.9,12.44.29,2.06.67,4.1.84,6.16.2,2.05.41,4.09.61,6.13.2,2.03.4,4.05.6,6.05.1,1,.2,2,.28,2.99.05,1,.1,1.99.15,2.98.19,3.96.4,7.84.55,11.65.03.95.1,1.9.1,2.84,0,.94,0,1.88,0,2.81,0,1.86,0,3.7-.01,5.51,0,1.81-.02,3.6-.03,5.36-.01,1.76,0,3.49-.12,5.19-.19,3.4-.36,6.69-.54,9.84-.26,6.3-1.02,12.08-1.55,17.17-.3,2.55-.52,4.93-.84,7.12-.35,2.18-.67,4.19-.96,6-.56,3.62-1.09,6.46-1.41,8.4-.35,1.94-.53,2.97-.53,2.97Z"/>
        </g>
      </g>
    </mask>
    <radialGradient id="uuid-8a4e34fa-cccf-4736-a4df-bf5541e52935" cx="2466.1" cy="2191.32" fx="2466.1" fy="2191.32" r="131.2" gradientUnits="userSpaceOnUse">
      <stop offset="0" stop-color="#fff"/>
      <stop offset="1" stop-color="#fff"/>
    </radialGradient>
    <filter id="uuid-e06254f2-c123-4b99-8079-0e03b5362d0f" x="1843.63" y="1962.33" width="391.14" height="202.11" color-interpolation-filters="sRGB" filterUnits="userSpaceOnUse">
      <feFlood flood-color="#fff" result="bg"/>
      <feBlend in="SourceGraphic" in2="bg"/>
    </filter>
    <filter id="uuid-3564bfbf-603b-4469-9597-e3970355f66a" x="1843.63" y="-10192" width="391.14" height="32766" color-interpolation-filters="sRGB" filterUnits="userSpaceOnUse">
      <feFlood flood-color="#fff" result="bg"/>
      <feBlend in="SourceGraphic" in2="bg"/>
    </filter>
    <mask id="uuid-80bf176c-f7d0-48f5-99ca-5b7315aa6d6c" data-name="mask-7" x="1843.63" y="-10192" width="391.14" height="32766" maskUnits="userSpaceOnUse"/>
    <radialGradient id="uuid-cb8f4929-fbb4-4e0e-ba77-bbe52eff30fc" cx="1984.04" cy="2000.36" fx="1984.04" fy="2000.36" r="482.97" gradientUnits="userSpaceOnUse">
      <stop offset="0" stop-color="#fff"/>
      <stop offset="1" stop-color="#000"/>
    </radialGradient>
    <mask id="uuid-519310c8-ee40-468e-8fae-f83f7dc5441e" data-name="mask-6" x="1843.63" y="1962.33" width="391.14" height="202.11" maskUnits="userSpaceOnUse">
      <g class="uuid-0941fb34-9b7d-4dfc-9928-da3f43864cd4">
        <g class="uuid-8f99a74c-964f-4590-93ec-29c2af876723">
          <path class="uuid-32e12e42-d0df-4c70-b6c9-65f63bc703fc" d="m1843.63,2164.44s.48-1.8,1.37-5.19c.23-.84.49-1.79.77-2.82.31-1.03.65-2.16,1.02-3.38.37-1.22.77-2.53,1.2-3.93.48-1.38.98-2.84,1.52-4.39,1.03-3.12,2.38-6.49,3.77-10.2,1.49-3.67,3.14-7.63,5.09-11.78,3.85-8.32,8.69-17.52,14.71-27.13,2.98-4.83,6.35-9.69,9.91-14.67,3.64-4.93,7.53-9.94,11.76-14.89,4.17-5.01,8.79-9.88,13.56-14.79,2.44-2.41,4.87-4.88,7.46-7.23,2.54-2.41,5.2-4.73,7.87-7.09,5.41-4.64,11.03-9.22,16.96-13.54,5.91-4.34,12.01-8.59,18.38-12.51,12.67-7.97,26.18-15.04,40.08-21.15,13.93-6.06,28.27-11.18,42.66-15.17,1.79-.52,3.59-1,5.39-1.46,1.8-.46,3.59-.96,5.39-1.38,1.8-.42,3.6-.84,5.39-1.25,1.79-.42,3.59-.77,5.38-1.15,3.57-.78,7.16-1.4,10.7-2.07,3.56-.59,7.09-1.19,10.61-1.65,14.06-2.02,27.76-2.97,40.75-3.22,12.99-.21,25.26.4,36.51,1.5,11.25,1.11,21.49,2.74,30.46,4.58,8.98,1.82,16.68,3.91,22.98,5.72,3.14.94,5.94,1.76,8.35,2.61,2.41.81,4.46,1.48,6.1,2.1,3.28,1.22,5.03,1.86,5.03,1.86,0,0-1.82-.39-5.24-1.13-3.41-.76-8.44-1.72-14.84-2.88-6.41-1.1-14.21-2.25-23.17-3.23-8.96-.97-19.1-1.72-30.15-1.98-2.77-.03-5.58-.15-8.45-.12-1.43,0-2.88,0-4.35,0-1.46.03-2.94.06-4.42.09-2.97.04-6,.18-9.06.29-3.06.14-6.17.33-9.32.54-12.59.9-25.81,2.44-39.33,4.85-13.53,2.36-27.35,5.64-41.15,9.71-6.91,2.01-13.77,4.37-20.62,6.82-6.85,2.45-13.61,5.22-20.3,8.14-6.71,2.87-13.28,6.06-19.74,9.38-6.46,3.33-12.78,6.86-18.93,10.57-1.53.94-3.06,1.87-4.58,2.81-1.5.96-3,1.93-4.5,2.89-1.51.94-2.96,1.96-4.44,2.94-1.47.99-2.95,1.96-4.37,2.99-1.44,1.02-2.87,2.03-4.3,3.04-1.4,1.05-2.8,2.09-4.19,3.13-1.4,1.03-2.77,2.09-4.12,3.15-1.35,1.07-2.73,2.09-4.05,3.18-5.33,4.29-10.39,8.73-15.27,13.17-4.82,4.5-9.44,9.01-13.74,13.59-8.67,9.11-16.24,18.34-22.74,27.23-6.52,8.88-11.98,17.43-16.51,25.2-2.31,3.87-4.25,7.61-6.14,11.03-1.77,3.48-3.46,6.65-4.81,9.61-.7,1.47-1.36,2.86-1.98,4.16-.59,1.32-1.15,2.56-1.67,3.71-.52,1.15-1,2.22-1.44,3.2-.42.99-.79,1.89-1.13,2.7-1.36,3.22-2.09,4.94-2.09,4.94Z"/>
        </g>
      </g>
    </mask>
    <radialGradient id="uuid-0398c81f-fea3-4f69-a07e-725fff03b67b" cx="1984.04" cy="2000.36" fx="1984.04" fy="2000.36" r="482.97" xlink:href="#uuid-8a4e34fa-cccf-4736-a4df-bf5541e52935"/>
    <linearGradient id="uuid-d7eedfd0-9778-41f6-b0d0-9a1e300c0eae" x1="1790.36" y1="781.89" x2="1790.36" y2="2693.52" gradientUnits="userSpaceOnUse">
      <stop offset="0" stop-color="#d600ff"/>
      <stop offset=".52" stop-color="#6104bb"/>
      <stop offset=".73" stop-color="#6800bf"/>
      <stop offset=".99" stop-color="#0053e1"/>
    </linearGradient>
    <filter id="uuid-7fb7260d-6172-4ac5-a5f6-f7f129cd479e" x="1682.5" y="1006.01" width="394.4" height="797.24" color-interpolation-filters="sRGB" filterUnits="userSpaceOnUse">
      <feFlood flood-color="#fff" result="bg"/>
      <feBlend in="SourceGraphic" in2="bg"/>
    </filter>
    <filter id="uuid-dc373006-491b-4dc1-b253-7a84f32361a6" x="1682.5" y="-10192" width="394.4" height="32766" color-interpolation-filters="sRGB" filterUnits="userSpaceOnUse">
      <feFlood flood-color="#fff" result="bg"/>
      <feBlend in="SourceGraphic" in2="bg"/>
    </filter>
    <mask id="uuid-a3a5ac46-da1f-4afa-9b9c-8c9e5d234a58" data-name="mask-9" x="1682.5" y="-10192" width="394.4" height="32766" maskUnits="userSpaceOnUse"/>
    <radialGradient id="uuid-fe9137d0-1cbf-4284-b85c-d473aef1aec2" cx="1879.7" cy="1404.63" fx="1879.7" fy="1404.63" r="531.88" gradientUnits="userSpaceOnUse">
      <stop offset="0" stop-color="#fff"/>
      <stop offset=".22" stop-color="gray"/>
      <stop offset="1" stop-color="#000"/>
    </radialGradient>
    <mask id="uuid-918b48c5-2aca-4d82-aafe-35dec55851cd" data-name="mask-8" x="1682.5" y="1006.01" width="394.4" height="797.24" maskUnits="userSpaceOnUse">
      <g class="uuid-d9ecb605-f731-4886-b1ee-6a930577088f">
        <g class="uuid-13ffd730-13d8-4ee5-8fad-dac835cc2be1">
          <path class="uuid-49cba57e-caf1-4506-b40f-b78acb442371" d="m1682.5,1803.25s1.26-3.27,3.62-9.39c1.19-3.06,2.66-6.83,4.4-11.26,1.74-4.43,3.69-9.53,6.03-15.2,2.39-5.65,5.03-11.9,7.9-18.71,1.45-3.4,2.96-6.94,4.52-10.62,1.57-3.67,3.33-7.41,5.08-11.31,1.77-3.89,3.6-7.9,5.48-12.03.94-2.06,1.9-4.16,2.88-6.28.97-2.12,1.94-4.28,3-6.43,4.21-8.62,8.63-17.69,13.25-27.14,2.34-4.71,4.89-9.45,7.4-14.31,2.54-4.86,5.12-9.81,7.75-14.84,1.29-2.53,2.71-5.02,4.11-7.54,1.41-2.52,2.82-5.06,4.25-7.63,2.86-5.13,5.76-10.33,8.7-15.61,3.04-5.22,6.19-10.47,9.36-15.8,1.59-2.66,3.18-5.35,4.79-8.04.8-1.35,1.61-2.7,2.42-4.06.84-1.34,1.68-2.68,2.52-4.02,3.4-5.37,6.83-10.79,10.3-16.27,1.75-2.73,3.47-5.49,5.26-8.23,1.78-2.71,3.57-5.44,5.37-8.18,3.6-5.48,7.23-11,10.89-16.56.92-1.39,1.83-2.78,2.75-4.17.9-1.4,1.8-2.8,2.7-4.2,1.8-2.8,3.61-5.62,5.42-8.44,3.63-5.65,7.27-11.32,10.94-17.03,3.61-5.75,7.25-11.53,10.89-17.34,7.39-11.55,14.42-23.44,21.73-35.23,3.67-5.88,7.15-11.9,10.73-17.86,3.54-5.98,7.14-11.94,10.65-17.95,3.49-6.02,6.98-12.04,10.47-18.05,1.75-3.01,3.49-6.01,5.23-9.01,1.7-3.03,3.39-6.05,5.09-9.08,3.4-6.04,6.79-12.07,10.17-18.08,3.36-6.03,6.61-12.08,9.9-18.09,3.27-6.02,6.6-11.98,9.71-18.01,3.18-6,6.35-11.96,9.5-17.89.79-1.48,1.57-2.96,2.36-4.44.76-1.49,1.52-2.98,2.28-4.46,1.52-2.97,3.03-5.93,4.53-8.88,2.98-5.91,6.07-11.73,8.98-17.57,2.89-5.85,5.76-11.65,8.61-17.39,1.42-2.87,2.84-5.73,4.25-8.58,1.37-2.86,2.74-5.71,4.1-8.54,2.72-5.66,5.4-11.27,8.06-16.8,1.35-2.76,2.6-5.54,3.87-8.29,1.27-2.75,2.54-5.49,3.79-8.2,2.5-5.43,5.03-10.77,7.42-16.07,2.36-5.31,4.68-10.55,6.97-15.7,4.69-10.25,8.85-20.31,13-29.9,4.23-9.57,7.87-18.9,11.56-27.7.91-2.2,1.81-4.38,2.7-6.52.22-.54.44-1.07.66-1.6l.08-.2c.05-.13.02-.04.05-.12l.15-.4.31-.81c.41-1.07.82-2.14,1.22-3.2.81-2.11,1.61-4.2,2.39-6.25.78-2.05,1.44-4.06,2.15-6.04,5.59-15.86,9.53-30.16,12.4-41.99.69-2.96,1.29-5.79,1.88-8.44.3-1.33.59-2.61.87-3.85.27-1.24.48-2.45.72-3.62.45-2.33.87-4.48,1.25-6.46.19-.99.37-1.93.55-2.83.14-.9.28-1.76.41-2.56,1.08-6.47,1.65-9.92,1.65-9.92,0,0-.19,3.5-.54,10.05-.44,6.55-1.24,16.17-2.95,28.36-1.8,12.18-4.57,26.87-9.08,43.55-.57,2.08-1.1,4.24-1.74,6.34-.64,2.1-1.3,4.24-1.96,6.4-.33,1.08-.67,2.17-1,3.27l-.25.83-.13.41-.16.49c-.18.55-.37,1.1-.56,1.65-.75,2.21-1.5,4.45-2.27,6.73-1.54,4.54-3.12,9.2-4.74,13.96-.82,2.38-1.61,4.8-2.49,7.22-.88,2.42-1.76,4.87-2.65,7.34-3.59,9.89-7.3,20.21-11.45,30.77-2.06,5.29-4.15,10.67-6.27,16.13-2.17,5.44-4.46,10.93-6.74,16.52-1.15,2.79-2.3,5.6-3.47,8.43-1.17,2.82-2.33,5.67-3.59,8.5-2.47,5.68-4.97,11.42-7.49,17.23-1.26,2.9-2.54,5.83-3.81,8.76-1.34,2.91-2.68,5.83-4.03,8.77-2.7,5.88-5.43,11.81-8.18,17.79-11.28,23.79-23.24,48.24-36.26,72.63-3.25,6.1-6.46,12.26-9.77,18.38-3.37,6.09-6.74,12.2-10.13,18.32-1.7,3.06-3.4,6.12-5.1,9.18-1.75,3.04-3.49,6.07-5.24,9.11-3.5,6.08-7,12.16-10.5,18.25-3.56,6.05-7.21,12.04-10.81,18.06-3.63,6-7.16,12.05-10.89,17.97-3.68,5.94-7.37,11.86-11.07,17.75-3.66,5.92-7.45,11.72-11.2,17.53-3.75,5.8-7.49,11.57-11.21,17.32-3.82,5.69-7.62,11.36-11.4,16.99-1.89,2.81-3.78,5.62-5.66,8.41-.94,1.4-1.88,2.79-2.81,4.19-.95,1.38-1.9,2.75-2.84,4.12-3.81,5.46-7.59,10.88-11.34,16.26-1.88,2.69-3.75,5.36-5.61,8.02-1.85,2.64-3.62,5.32-5.42,7.96-3.6,5.29-7.16,10.52-10.69,15.7-.88,1.3-1.76,2.59-2.64,3.88-.85,1.31-1.69,2.61-2.53,3.92-1.68,2.6-3.36,5.19-5.02,7.77-3.33,5.14-6.63,10.23-9.87,15.24-6.26,10.18-12.42,20.05-18.27,29.66-5.72,9.7-11.25,19.07-16.56,28.07-5.15,9.1-10.09,17.81-14.79,26.11-4.65,8.32-8.87,16.32-12.98,23.77-2.03,3.74-4.06,7.33-5.89,10.85-1.84,3.52-3.62,6.91-5.33,10.17-3.44,6.52-6.59,12.5-9.45,17.91-5.58,10.9-9.96,19.47-12.95,25.31-3.02,5.83-4.63,8.94-4.63,8.94Z"/>
        </g>
      </g>
    </mask>
    <radialGradient id="uuid-9f7b6f33-71fc-4f6e-9ed6-1f1912d6982b" cx="1879.7" cy="1404.63" fx="1879.7" fy="1404.63" r="531.88" gradientUnits="userSpaceOnUse">
      <stop offset="0" stop-color="#fff"/>
      <stop offset=".22" stop-color="#fff"/>
      <stop offset="1" stop-color="#fff"/>
    </radialGradient>
    <filter id="uuid-8e66fb59-5eaf-414b-8a9e-2aa70f2770f7" x="1641.51" y="1779.92" width="11.97" height="15.32" color-interpolation-filters="sRGB" filterUnits="userSpaceOnUse">
      <feFlood flood-color="#fff" result="bg"/>
      <feBlend in="SourceGraphic" in2="bg"/>
    </filter>
    <filter id="uuid-52f531e8-c0b0-4c5b-a377-1ae2a1811475" x="1641.51" y="-10192" width="11.97" height="32766" color-interpolation-filters="sRGB" filterUnits="userSpaceOnUse">
      <feFlood flood-color="#fff" result="bg"/>
      <feBlend in="SourceGraphic" in2="bg"/>
    </filter>
    <mask id="uuid-8f31b5e6-def3-4311-a023-0f8f464a63de" data-name="mask-11" x="1641.51" y="-10192" width="11.97" height="32766" maskUnits="userSpaceOnUse"/>
    <radialGradient id="uuid-1dbaf467-1783-4311-9c5e-b5bdeeeae35a" data-name="New Gradient Swatch 24" cx="1647.5" cy="1787.58" fx="1647.5" fy="1787.58" r="6.87" gradientUnits="userSpaceOnUse">
      <stop offset="0" stop-color="#fff"/>
      <stop offset=".27" stop-color="gray"/>
      <stop offset="1" stop-color="#000"/>
    </radialGradient>
    <mask id="uuid-eace1ff5-09a6-4fc5-85f6-3656ca3ddf4d" data-name="mask-10" x="1641.51" y="1779.92" width="11.97" height="15.32" maskUnits="userSpaceOnUse">
      <g class="uuid-7185f6f7-76c9-4c31-9b68-997d168e4f53">
        <g class="uuid-c3f1453e-fb4e-40dc-a6f7-7ced1ee1b9e1">
          <path class="uuid-570ead88-bf7f-4a28-bb8a-8e2d3c20f340" d="m1647.11,1787.89s-.42-.56-1.15-1.54c-.52-.71-1.26-1.72-2.15-2.93-.31-.44-.65-.91-1.01-1.41-.23-.34-.48-.7-.74-1.08-.22-.33-.35-.55-.45-.72-.1-.17-.12-.26-.1-.28.02-.02.1.03.24.15.13.12.32.31.58.6.3.34.59.66.87.97.4.47.78.91,1.13,1.32.96,1.16,1.77,2.13,2.33,2.8.78.95,1.22,1.5,1.22,1.5,0,0,.42.56,1.16,1.55.52.71,1.26,1.73,2.16,2.94.31.44.65.91,1.01,1.42.23.34.48.7.74,1.08.21.32.35.55.44.71.09.17.12.25.09.27-.03.01-.1-.03-.25-.17-.14-.13-.32-.31-.59-.6-.3-.34-.59-.67-.87-.98-.4-.47-.78-.91-1.13-1.32-.96-1.16-1.76-2.12-2.32-2.79-.77-.95-1.22-1.49-1.22-1.49Z"/>
        </g>
      </g>
    </mask>
    <radialGradient id="uuid-01fea4a5-4b13-4d25-a8b2-cfd7384fa7fc" data-name="New Gradient Swatch 22" cx="1647.5" cy="1787.58" fx="1647.5" fy="1787.58" r="6.87" xlink:href="#uuid-30361181-aba7-41c2-8274-9afb5711133b"/>
    <radialGradient id="uuid-719e9a78-3992-4ce0-80b8-0ab75556d6e4" data-name="New Gradient Swatch 11" cx="2309.5" cy="1757.5" fx="2309.5" fy="1757.5" r="609.45" gradientUnits="userSpaceOnUse">
      <stop offset="0" stop-color="#fff"/>
      <stop offset=".34" stop-color="#bdd100"/>
      <stop offset="1" stop-color="#176400"/>
    </radialGradient>
    <radialGradient id="uuid-bf1257b3-f0f2-4820-9499-abc29ab77d95" data-name="New Gradient Swatch 11" cx="2255.5" cy="1787.5" fx="2255.5" fy="1787.5" r="673.86" xlink:href="#uuid-719e9a78-3992-4ce0-80b8-0ab75556d6e4"/>
  </defs>
  <g id="uuid-cafe7c14-39d3-478e-9342-9424eb9223b6" data-name="Background">
    <rect id="uuid-3a4dbde4-6e6e-4749-86a8-cc27ab8214a4" data-name="BG" class="uuid-663cbbd3-08fb-45bf-86e9-10ba7c644811" x=".5" y=".5" width="4000" height="4000"/>
  </g>
  <g id="uuid-98845a3c-d011-495f-9043-951155cf57f9" data-name="object">
    <g>
      <path class="uuid-f7adf722-e15d-4f18-b0c1-f81e71a30f92" d="m2259.22,2072.21c37.12,16.38,67.69,43.69,88.43,76.44,175.74,281.65-184.51,589.53-456.33,465.05v1.08c-144.09-39.28-254.37-186.68-328.6-441.02-15.28,171.38,28.39,335.15,131.01,490.19-101.53-86.25-172.5-219.46-209.62-398.49-7.63,89.53-1.08,181.23,20.74,277.29,31.67,67.71,77.52,125.53,136.46,167.01,434.49,313.37,1024-133.18,896.26-542.56-32.75-44.77-82.96-87.33-149.55-129.9,87.33,97.15,112.44,219.43,76.42,366.78-6.54-167.01-77.52-279.45-215.06-336.23,2.18,1.08,5.47,2.2,8.73,2.2,0,1.08,1.1,2.16,1.1,2.16h0Z"/>
      <path class="uuid-9166d691-5718-4b13-96d1-357aade85f20" d="m2040.88,2642.08c-50.21,2.2-101.53-5.45-149.56-28.39v1.08c-144.09-39.28-254.37-186.68-328.6-441.02-15.28,171.38,28.39,335.15,131.01,490.19-101.53-86.25-172.5-219.46-209.62-398.49-7.63,89.53-1.08,181.23,20.74,277.29,31.67,67.71,77.52,125.53,136.46,167.01,65.51,48.05,135.38,77.52,206.33,93.9-51.32-23.98-92.8-54.58-122.27-93.9,60.04,37.16,137.56,51.33,232.52,44.77-120.08-15.26-203.05-73.12-250-175.75,92.81,78.6,203.05,99.34,332.97,63.31h0Z"/>
      <path class="uuid-74afdd4c-c6a8-4f64-9d76-4b3dde51006e" d="m2109.64,2373.52c-139.72-327.5-247.79-565.5-316.56-713.98-111.36-237.97-218.35-418.12-137.57-711.78,103.71-156.12,191.06-197.6,264.2-172.49h0c5.47,2.2,14.2,4.36,20.74,7.64-7.65-1.08-19.66-1.08-28.39,0-120.08,15.29-259.81,222.71-115.72,615.72,3.29,9.85,6.55,18.58,9.83,26.19h1.08c13.11,31.67,31.67,70.99,53.49,115.73,140.83,286.05,433.41,820.97,545.85,1183.42,223.79,718.34-579.68,792.58-610.26,354.81-16.38-227.08,295.85-307.84,360.26-62.23,13.11,50.21-1.08,96.06-26.21,134.3,192.14-19.7,183.41-211.82,132.09-390.85-36.02-126.65-99.34-264.19-152.84-386.48h0Z"/>
      <path class="uuid-f4c97135-79f1-4fb9-81f0-2d57875a5565" d="m1640.24,1015.43c4.36-22.9,8.73-45.84,15.27-67.67,103.71-156.12,191.06-197.6,264.2-172.49h0c5.47,2.2,14.2,4.36,20.74,7.64-7.65-1.08-19.66-1.08-28.39,0-50.21,6.57-104.8,46.93-139.72,122.29-43.68,9.81-86.25,42.56-132.09,110.23h0Z"/>
      <g>
        <path class="uuid-a02352bd-ca73-4f3b-a2b6-07c3f9c0fbf4" d="m1864.03,1814.58c-19.66-41.48-41.48-89.53-56.78-123.37l72.05-112.43c18.56,37.11,39.3,77.48,61.14,120.08-41.49-12.01-66.59,39.28-76.42,115.72h0Z"/>
        <g class="uuid-57b7c466-927d-4cda-a7ca-cfb701cf316b">
          <polygon class="uuid-ca6682d6-177e-47c0-b09c-833e7af73f90" points="1968.82 1782.91 1850.94 1822.23 1845.47 1803.65 1962.29 1764.37 1968.82 1782.91"/>
          <polygon class="uuid-ca6682d6-177e-47c0-b09c-833e7af73f90" points="1965.56 1773.1 1847.65 1812.38 1842.2 1794.92 1960.09 1754.52 1965.56 1773.1"/>
          <polygon class="uuid-ca6682d6-177e-47c0-b09c-833e7af73f90" points="1962.29 1764.37 1845.47 1803.65 1838.92 1785.11 1956.83 1745.79 1962.29 1764.37"/>
          <polygon class="uuid-ca6682d6-177e-47c0-b09c-833e7af73f90" points="1960.09 1754.52 1842.2 1794.92 1835.64 1776.38 1953.55 1735.98 1960.09 1754.52"/>
          <polygon class="uuid-ca6682d6-177e-47c0-b09c-833e7af73f90" points="1956.83 1745.79 1838.92 1785.11 1832.38 1766.53 1950.28 1727.25 1956.83 1745.79"/>
          <polygon class="uuid-ca6682d6-177e-47c0-b09c-833e7af73f90" points="1953.55 1735.98 1835.64 1776.38 1829.09 1757.8 1947 1718.48 1953.55 1735.98"/>
          <polygon class="uuid-ca6682d6-177e-47c0-b09c-833e7af73f90" points="1950.28 1727.25 1832.38 1766.53 1826.91 1749.07 1943.71 1708.67 1950.28 1727.25"/>
          <polygon class="uuid-ca6682d6-177e-47c0-b09c-833e7af73f90" points="1947 1718.48 1829.09 1757.8 1823.63 1739.26 1941.55 1699.94 1947 1718.48"/>
          <polygon class="uuid-ca6682d6-177e-47c0-b09c-833e7af73f90" points="1943.71 1708.67 1826.91 1749.07 1820.36 1730.49 1938.27 1690.13 1943.71 1708.67"/>
          <polygon class="uuid-ca6682d6-177e-47c0-b09c-833e7af73f90" points="1941.55 1699.94 1823.63 1739.26 1817.08 1720.68 1934.99 1681.4 1941.55 1699.94"/>
          <polygon class="uuid-ca6682d6-177e-47c0-b09c-833e7af73f90" points="1938.27 1690.13 1820.36 1730.49 1813.82 1711.95 1931.72 1672.67 1938.27 1690.13"/>
          <polygon class="uuid-ca6682d6-177e-47c0-b09c-833e7af73f90" points="1934.99 1681.4 1817.08 1720.68 1810.54 1703.22 1928.44 1662.82 1934.99 1681.4"/>
          <polygon class="uuid-ca6682d6-177e-47c0-b09c-833e7af73f90" points="1931.72 1672.67 1813.82 1711.95 1808.35 1693.42 1925.17 1654.09 1931.72 1672.67"/>
          <polygon class="uuid-ca6682d6-177e-47c0-b09c-833e7af73f90" points="1928.44 1662.82 1810.54 1703.22 1805.09 1684.65 1922.97 1644.28 1928.44 1662.82"/>
          <polygon class="uuid-ca6682d6-177e-47c0-b09c-833e7af73f90" points="1925.17 1654.09 1808.35 1693.42 1801.8 1674.83 1919.71 1635.52 1925.17 1654.09"/>
          <polygon class="uuid-ca6682d6-177e-47c0-b09c-833e7af73f90" points="1922.97 1644.28 1805.09 1684.65 1798.52 1666.1 1916.43 1625.7 1922.97 1644.28"/>
          <polygon class="uuid-ca6682d6-177e-47c0-b09c-833e7af73f90" points="1919.71 1635.52 1801.8 1674.83 1795.26 1656.26 1913.16 1616.98 1919.71 1635.52"/>
          <polygon class="uuid-ca6682d6-177e-47c0-b09c-833e7af73f90" points="1916.43 1625.7 1798.52 1666.1 1791.98 1647.53 1909.88 1608.25 1916.43 1625.7"/>
          <polygon class="uuid-ca6682d6-177e-47c0-b09c-833e7af73f90" points="1913.16 1616.98 1795.26 1656.26 1789.79 1638.8 1906.6 1598.43 1913.16 1616.98"/>
          <polygon class="uuid-ca6682d6-177e-47c0-b09c-833e7af73f90" points="1909.88 1608.25 1791.98 1647.53 1786.51 1628.98 1904.43 1589.67 1909.88 1608.25"/>
          <polygon class="uuid-ca6682d6-177e-47c0-b09c-833e7af73f90" points="1906.6 1598.43 1789.79 1638.8 1783.24 1620.26 1901.15 1579.86 1906.6 1598.43"/>
          <polygon class="uuid-ca6682d6-177e-47c0-b09c-833e7af73f90" points="1904.43 1589.67 1786.51 1628.98 1779.96 1610.41 1897.87 1571.13 1904.43 1589.67"/>
          <polygon class="uuid-ca6682d6-177e-47c0-b09c-833e7af73f90" points="1901.15 1579.86 1783.24 1620.26 1776.7 1601.68 1894.6 1562.4 1901.15 1579.86"/>
          <polygon class="uuid-ca6682d6-177e-47c0-b09c-833e7af73f90" points="1897.87 1571.13 1779.96 1610.41 1773.42 1592.95 1891.32 1552.55 1897.87 1571.13"/>
        </g>
      </g>
      <path class="uuid-ca6682d6-177e-47c0-b09c-833e7af73f90" d="m2040.88,2214.11c-16.36-37.08-43.67-101.51-58.94-135.34,54.58-26.19,99.34-38.2,133.18-34.96,9.83,20.75-33.83-75.32,28.39,56.78-44.77-28.39-91.72,34.96-102.63,113.52h0Z"/>
      <path class="uuid-b513c927-f892-4950-9885-d9a58ffab7c6" d="m1822.55,3185.76c-14.2-31.67-24.02-66.59-26.21-106.99-16.38-227.08,295.85-307.84,360.26-62.23,13.11,50.21-1.08,96.06-26.21,134.3,192.14-19.7,183.41-211.82,132.09-390.85-9.81-34.96-21.82-70.99-36.02-106.99l-27.29-117.92c1.09-32.75,12.01-38.2,33.84-15.29,117.9,274.04,138.64,460.72,64.41,560.06,34.94-16.37,63.32-49.13,86.25-98.22-41.48,198.69-153.94,278.37-337.33,241.25,4.37-2.2,7.65-10.93,10.91-26.23,25.12-191.04-223.79-255.46-234.7-10.89h0Z"/>
      <g class="uuid-3700bd22-70e1-4509-9f77-bb582579210f">
        <path class="uuid-e99348b6-6c5b-4cdc-b190-c9127a1f4c7c" d="m2324.25,3029.66s.4-1.61,1.14-4.62c.19-.75.41-1.59.64-2.51.24-.92.5-1.93.72-3.03.46-2.2,1.01-4.71,1.63-7.5.53-2.82,1.12-5.95,1.76-9.35.51-3.43,1.16-7.1,1.69-11.05.45-3.97,1.11-8.14,1.46-12.6.19-2.23.46-4.49.64-6.83.16-2.33.32-4.72.49-7.16.19-2.44.25-4.94.38-7.48.1-2.54.26-5.12.26-7.76.05-2.63.1-5.31.15-8.03-.02-2.72-.04-5.48-.06-8.28-.17-11.19-.64-22.98-1.62-35.16-.19-3.05-.56-6.11-.81-9.2-.14-1.54-.27-3.09-.41-4.65-.17-1.55-.34-3.11-.51-4.68-.36-3.13-.65-6.27-1.07-9.43-.4-3.16-.79-6.33-1.19-9.51-.41-3.18-.91-6.37-1.36-9.57-.23-1.6-.47-3.2-.7-4.81-.25-1.6-.51-3.21-.76-4.81-.52-3.21-.99-6.43-1.55-9.65-.57-3.21-1.14-6.43-1.71-9.65-2.32-12.86-4.86-25.69-7.61-38.29-.68-3.15-1.34-6.29-2.08-9.4-.7-3.12-1.4-6.22-2.09-9.3-1.46-6.15-2.91-12.23-4.33-18.21-2.95-11.94-5.84-23.48-8.74-34.4-1.43-5.46-2.82-10.78-4.24-15.91-1.39-5.13-2.7-10.11-4.04-14.86-1.31-4.76-2.57-9.33-3.77-13.67-1.21-4.34-2.36-8.46-3.45-12.33-2.16-7.74-4.1-14.48-5.61-20.07-1.6-5.55-2.77-9.95-3.6-12.94-.8-3-1.23-4.6-1.23-4.6,0,0,.71,1.5,2.03,4.31,1.29,2.82,3.24,6.94,5.6,12.23,2.31,5.31,5.13,11.75,8.21,19.21,1.51,3.74,3.13,7.72,4.83,11.91,1.68,4.2,3.34,8.66,5.13,13.3,3.5,9.3,7.16,19.42,10.79,30.22,3.65,10.79,7.25,22.26,10.75,34.21,3.44,11.96,6.84,24.38,9.82,37.12,3.12,12.71,5.73,25.76,8.17,38.85,2.34,13.11,4.27,26.31,5.76,39.35.34,3.27.68,6.52,1.01,9.76.32,3.24.52,6.48.78,9.69.12,1.61.24,3.21.37,4.8.09,1.6.17,3.19.26,4.78.08,1.59.16,3.17.24,4.75.08,1.58.15,3.15.18,4.71.08,3.13.16,6.24.23,9.31.04,3.08,0,6.13-.01,9.14.01,3.01-.1,6-.19,8.95-.1,2.95-.15,5.86-.37,8.73-.56,11.48-1.86,22.3-3.32,32.21-.41,2.47-.81,4.89-1.21,7.26-.41,2.36-.91,4.66-1.36,6.89-.46,2.24-.89,4.42-1.43,6.52-.51,2.1-1.01,4.14-1.49,6.11-.47,1.97-1.07,3.86-1.57,5.69-.52,1.83-1.02,3.58-1.53,5.26-1.11,3.34-2.1,6.4-3.07,9.15-1.03,2.73-1.97,5.16-2.79,7.26-.39,1.06-.82,2-1.2,2.88-.38.87-.73,1.67-1.04,2.38-1.26,2.83-1.94,4.35-1.94,4.35Z"/>
      </g>
      <g class="uuid-5a01d641-7f64-4a05-854b-702216bcd162">
        <path class="uuid-1392fe2e-b35d-4de4-a67e-934813b0d77f" d="m1843.75,3091.8s.35-1.1,1.07-3.12c.36-1.01.79-2.27,1.39-3.72.59-1.45,1.22-3.17,2.09-4.99.43-.92.87-1.89,1.34-2.91.47-1.02,1.04-2.04,1.59-3.14,1.08-2.21,2.47-4.47,3.91-6.94,2.99-4.86,6.76-10.15,11.49-15.48,4.72-5.34,10.52-10.62,17.31-15.42,3.4-2.39,7.07-4.63,10.98-6.64,1.93-1.06,3.97-1.95,6.02-2.88,2.08-.85,4.18-1.73,6.36-2.46,4.33-1.53,8.86-2.78,13.52-3.64,4.66-.89,9.44-1.48,14.27-1.68,9.67-.4,19.55.6,29.06,2.93,4.75,1.19,9.42,2.65,13.95,4.43,4.53,1.75,8.89,3.86,13.1,6.12,8.4,4.58,16.02,10.14,22.73,16.18,1.64,1.54,3.3,3.04,4.84,4.64.77.79,1.57,1.54,2.3,2.36.74.81,1.47,1.61,2.19,2.41,2.84,3.26,5.54,6.5,7.91,9.84.59.84,1.2,1.65,1.76,2.48.56.84,1.11,1.67,1.66,2.5.56.82,1.09,1.65,1.59,2.48.51.83,1.01,1.66,1.51,2.47.96,1.66,1.86,3.31,2.76,4.92.83,1.65,1.69,3.23,2.45,4.84,3.04,6.39,5.33,12.42,6.97,17.87.43,1.35.77,2.69,1.13,3.96.18.64.35,1.26.52,1.88.15.62.29,1.23.43,1.83.27,1.19.54,2.33.79,3.43.21,1.1.41,2.15.6,3.15.4,1.98.63,3.78.85,5.33.23,1.55.37,2.87.47,3.95.12,1.07.18,1.9.23,2.45.05.55.07.84.07.84,0,0-.11-.27-.31-.78-.2-.52-.52-1.28-.9-2.29-.38-1-.85-2.24-1.46-3.66-.62-1.42-1.25-3.08-2.08-4.88-.4-.9-.82-1.86-1.26-2.86-.47-.99-.95-2.02-1.46-3.09-.5-1.08-1.04-2.19-1.63-3.32-.59-1.14-1.15-2.33-1.81-3.52-.65-1.2-1.32-2.43-2.01-3.7-.72-1.24-1.47-2.53-2.23-3.84-.79-1.29-1.61-2.62-2.44-3.97-.84-1.35-1.77-2.68-2.67-4.06-3.69-5.49-8.06-11.13-13.08-16.66-4.99-5.56-10.73-10.92-17.03-15.91-3.21-2.43-6.48-4.85-9.96-7.06-.86-.57-1.76-1.08-2.63-1.62l-1.33-.8-1.36-.76c-1.78-1.06-3.63-2.01-5.48-2.98-7.48-3.69-15.38-6.79-23.57-8.71-4.07-1.03-8.2-1.81-12.35-2.26-4.14-.45-8.29-.75-12.41-.71-1.03.03-2.05.06-3.08.09-1.03.02-2.04.14-3.06.19-1.02.04-2.03.15-3.04.26-1.01.11-2.02.19-3.02.36-4.01.52-7.91,1.39-11.72,2.39-1.91.48-3.77,1.11-5.62,1.7-.91.33-1.82.67-2.72,1-.91.31-1.8.67-2.68,1.04-.88.37-1.78.7-2.63,1.1-.86.4-1.72.79-2.57,1.19-.86.38-1.67.85-2.5,1.26-.82.43-1.66.82-2.45,1.29-.8.45-1.6.9-2.39,1.34-.79.44-1.54.95-2.31,1.41-1.55.92-2.98,1.95-4.45,2.91-1.45.97-2.81,2.03-4.19,3.02-1.32,1.06-2.64,2.09-3.9,3.13-5.04,4.19-9.36,8.49-13.03,12.49-3.63,4.04-6.67,7.74-9.06,10.9-2.37,3.16-4.26,5.66-5.45,7.46-1.22,1.77-1.9,2.7-1.9,2.7Z"/>
      </g>
      <path class="uuid-5f5d53ab-76eb-4b42-b68f-7a418fc526e2" d="m2386.93,1951.04c-28.37-21.83-60.03-38.2-93.88-51.33-255.44-96.06-578.58,100.46-505.44,421.4,42.58,187.79,290.38,233.64,274,189.96-97.16-21.83-139.72-57.83-162.65-159.37-14.19-61.14-4.36-121.16,22.93-171.41,37.12-66.59,101.52-109.16,170.3-122.25,39.3-6.56,75.32-7.65,108.08-2.2h0c3.28,0,6.56,1.08,9.83,1.08h1.1c3.27,1.12,6.55,2.2,9.81,3.28h4.37v1.12h0c12.01,2.17,22.94,6.53,33.85,10.89,0,0-1.1-1.08-1.1-2.16-3.26,0-6.55-1.12-8.73-2.2,137.54,56.78,208.52,169.21,215.06,336.23,36.02-147.35,10.92-269.64-76.42-366.78,66.59,42.57,116.8,85.13,149.55,129.9-11.99-38.2-29.47-75.32-54.57-112.44h0v-1.08h-1.1v-1.08h0v-1.12h-1.08v-1.09h-1.1c-25.11-38.2-56.76-72.03-92.8-99.34h0Z"/>
      <g class="uuid-85a09ba2-899d-4391-bdc2-f738c5fb3b80">
        <path class="uuid-687cea37-c08c-4b44-98ff-0cbf331d71fa" d="m2477.58,2330.4s0-1.05,0-3.02c.03-1.96.01-4.85.1-8.52.04-1.83.08-3.86.12-6.07-.02-2.2-.04-4.58-.06-7.13-.01-2.54-.03-5.23-.04-8.08.04-2.83-.1-5.83-.21-8.95-.1-3.12-.2-6.36-.31-9.72-.03-1.68-.15-3.38-.27-5.11-.11-1.73-.23-3.48-.34-5.26-.11-1.78-.22-3.58-.33-5.4-.05-.91-.11-1.83-.16-2.75-.05-.92-.18-1.85-.26-2.78-.39-3.72-.73-7.52-1.1-11.38-.09-.96-.18-1.93-.27-2.91-.13-.97-.26-1.94-.39-2.92-.26-1.95-.52-3.92-.78-5.89-.54-3.95-.98-7.96-1.74-11.96-.68-4.01-1.37-8.04-2.06-12.1-.85-4.02-1.71-8.06-2.56-12.09l-.62-3.03c-.2-1.01-.49-2-.73-3-.51-2-1.01-3.99-1.52-5.98-.5-1.99-1-3.98-1.49-5.97-.23-1-.52-1.97-.81-2.95-.29-.98-.58-1.95-.87-2.92-.58-1.95-1.15-3.88-1.72-5.81-.58-1.93-1.07-3.87-1.71-5.76-1.28-3.77-2.54-7.5-3.78-11.17-.31-.92-.61-1.83-.92-2.74-.31-.91-.68-1.79-1.02-2.68-.68-1.78-1.36-3.54-2.03-5.28-.66-1.75-1.32-3.47-1.97-5.18-.33-.85-.63-1.71-.99-2.54-.36-.83-.71-1.65-1.06-2.46-1.4-3.27-2.76-6.46-4.07-9.54-.33-.77-.65-1.54-.97-2.3-.35-.74-.71-1.48-1.05-2.21-.7-1.46-1.38-2.89-2.05-4.3-1.32-2.82-2.59-5.53-3.8-8.1-1.31-2.52-2.55-4.92-3.72-7.17-1.16-2.26-2.26-4.37-3.24-6.34-.48-1-1.01-1.9-1.5-2.78-.49-.88-.97-1.72-1.41-2.51-1.8-3.18-3.16-5.73-4.11-7.45-.93-1.73-1.43-2.66-1.43-2.66,0,0,.65.82,1.87,2.36,1.2,1.55,3.01,3.81,5.22,6.74.56.73,1.14,1.5,1.76,2.31.61.81,1.28,1.64,1.89,2.57,1.27,1.82,2.6,3.81,4.04,5.93,1.43,2.13,2.95,4.4,4.56,6.79,1.48,2.47,3.02,5.07,4.64,7.79.8,1.36,1.62,2.76,2.46,4.18.42.71.84,1.43,1.26,2.15.39.74.78,1.49,1.18,2.25,1.57,3.03,3.19,6.17,4.86,9.39.41.81.83,1.62,1.25,2.44.42.82.77,1.68,1.16,2.52.77,1.7,1.54,3.42,2.32,5.16.78,1.74,1.56,3.5,2.36,5.28.39.89.81,1.78,1.17,2.69.35.92.71,1.84,1.07,2.76,1.41,3.71,2.85,7.48,4.31,11.3,1.36,3.85,2.57,7.81,3.84,11.78.32.99.63,1.99.95,2.98.32,1,.64,2,.9,3.01.53,2.03,1.07,4.06,1.61,6.1.53,2.04,1.06,4.09,1.6,6.13.25,1.03.56,2.04.77,3.08l.66,3.11c.85,4.15,1.7,8.3,2.54,12.43.68,4.16,1.27,8.32,1.9,12.44.29,2.06.67,4.1.84,6.16.2,2.05.41,4.09.61,6.13.2,2.03.4,4.05.6,6.05.1,1,.2,2,.28,2.99.05,1,.1,1.99.15,2.98.19,3.96.4,7.84.55,11.65.03.95.1,1.9.1,2.84,0,.94,0,1.88,0,2.81,0,1.86,0,3.7-.01,5.51,0,1.81-.02,3.6-.03,5.36-.01,1.76,0,3.49-.12,5.19-.19,3.4-.36,6.69-.54,9.84-.26,6.3-1.02,12.08-1.55,17.17-.3,2.55-.52,4.93-.84,7.12-.35,2.18-.67,4.19-.96,6-.56,3.62-1.09,6.46-1.41,8.4-.35,1.94-.53,2.97-.53,2.97Z"/>
      </g>
      <path class="uuid-e9f31e74-8a29-4da0-b6b4-95b8a5acf048" d="m2386.93,1951.04c-28.37-21.83-60.03-38.2-93.88-51.33-208.52-78.6-462.86,38.24-508.71,259.83,2.16,98.26,17.46,164.85,69.85,233.64-141.91-414.83,369-544.76,520.74-310.04-14.2-42.56-25.13-70.96-68.77-112.48,68.77,1.12,118.99,42.61,186.67,98.26-3.28-4.36-6.56-9.81-9.83-14.17h0v-1.08h-1.1v-1.08h0v-1.12h-1.08v-1.09h-1.1c-25.11-38.2-56.76-72.03-92.8-99.34h0Z"/>
      <g class="uuid-03dff918-d42b-4f9c-b89a-cc69598abe41">
        <path class="uuid-436f99f5-1919-4463-b07a-776e0b17c4a0" d="m1843.63,2164.44s.48-1.8,1.37-5.19c.23-.84.49-1.79.77-2.82.31-1.03.65-2.16,1.02-3.38.37-1.22.77-2.53,1.2-3.93.48-1.38.98-2.84,1.52-4.39,1.03-3.12,2.38-6.49,3.77-10.2,1.49-3.67,3.14-7.63,5.09-11.78,3.85-8.32,8.69-17.52,14.71-27.13,2.98-4.83,6.35-9.69,9.91-14.67,3.64-4.93,7.53-9.94,11.76-14.89,4.17-5.01,8.79-9.88,13.56-14.79,2.44-2.41,4.87-4.88,7.46-7.23,2.54-2.41,5.2-4.73,7.87-7.09,5.41-4.64,11.03-9.22,16.96-13.54,5.91-4.34,12.01-8.59,18.38-12.51,12.67-7.97,26.18-15.04,40.08-21.15,13.93-6.06,28.27-11.18,42.66-15.17,1.79-.52,3.59-1,5.39-1.46,1.8-.46,3.59-.96,5.39-1.38,1.8-.42,3.6-.84,5.39-1.25,1.79-.42,3.59-.77,5.38-1.15,3.57-.78,7.16-1.4,10.7-2.07,3.56-.59,7.09-1.19,10.61-1.65,14.06-2.02,27.76-2.97,40.75-3.22,12.99-.21,25.26.4,36.51,1.5,11.25,1.11,21.49,2.74,30.46,4.58,8.98,1.82,16.68,3.91,22.98,5.72,3.14.94,5.94,1.76,8.35,2.61,2.41.81,4.46,1.48,6.1,2.1,3.28,1.22,5.03,1.86,5.03,1.86,0,0-1.82-.39-5.24-1.13-3.41-.76-8.44-1.72-14.84-2.88-6.41-1.1-14.21-2.25-23.17-3.23-8.96-.97-19.1-1.72-30.15-1.98-2.77-.03-5.58-.15-8.45-.12-1.43,0-2.88,0-4.35,0-1.46.03-2.94.06-4.42.09-2.97.04-6,.18-9.06.29-3.06.14-6.17.33-9.32.54-12.59.9-25.81,2.44-39.33,4.85-13.53,2.36-27.35,5.64-41.15,9.71-6.91,2.01-13.77,4.37-20.62,6.82-6.85,2.45-13.61,5.22-20.3,8.14-6.71,2.87-13.28,6.06-19.74,9.38-6.46,3.33-12.78,6.86-18.93,10.57-1.53.94-3.06,1.87-4.58,2.81-1.5.96-3,1.93-4.5,2.89-1.51.94-2.96,1.96-4.44,2.94-1.47.99-2.95,1.96-4.37,2.99-1.44,1.02-2.87,2.03-4.3,3.04-1.4,1.05-2.8,2.09-4.19,3.13-1.4,1.03-2.77,2.09-4.12,3.15-1.35,1.07-2.73,2.09-4.05,3.18-5.33,4.29-10.39,8.73-15.27,13.17-4.82,4.5-9.44,9.01-13.74,13.59-8.67,9.11-16.24,18.34-22.74,27.23-6.52,8.88-11.98,17.43-16.51,25.2-2.31,3.87-4.25,7.61-6.14,11.03-1.77,3.48-3.46,6.65-4.81,9.61-.7,1.47-1.36,2.86-1.98,4.16-.59,1.32-1.15,2.56-1.67,3.71-.52,1.15-1,2.22-1.44,3.2-.42.99-.79,1.89-1.13,2.7-1.36,3.22-2.09,4.94-2.09,4.94Z"/>
      </g>
      <path class="uuid-fc32a9f2-2bc2-46fe-bea0-3b942085b329" d="m1891.32,2613.69c-70.96-31.64-135.36-92.78-182.31-191.04-79.69-161.57-61.13-301.32-4.37-435.57,152.84-354.81,497.8-684.51,434.49-1108.11-24.03-162.65-117.91-259.83-266.38-218.35-87.33,24.03-175.76,134.3-217.25,287.13,215.06-325.33,447.6-148.48,360.26,136.46-139.73,457.43-795.83,843.87-510.91,1458.51-21.82-96.06-28.37-187.76-20.74-277.29,37.12,179.03,108.09,312.25,209.62,398.49-102.63-155.04-146.29-318.8-131.01-490.19,74.23,254.34,184.51,401.74,328.6,441.02v-1.08Z"/>
      <path class="uuid-f966db98-9032-45b5-9991-11ba838db56f" d="m1908.8,652.98c-12.01,1.12-22.94,4.4-36.04,7.65-87.33,24.03-175.76,134.3-217.25,287.13,215.06-325.33,447.6-148.48,360.26,136.46-105.89,346.08-507.63,652.84-573.14,1046.92,57.86-168.09,126.65-282.73,205.25-343.88-26.2,66.59-43.68,150.68-53.49,252.18,61.12-192.12,133.18-350.45,217.25-474.9,108.07-157.2,188.85-311.12,243.43-460.68,37.12-102.63,30.57-217.26-19.64-345,27.29,18.58,52.4,64.43,77.5,136.46-17.46-147.39-85.15-228.16-204.13-242.37h0Z"/>
      <g class="uuid-c9f37c7d-81a6-4464-845b-5f5c21411a59">
        <path class="uuid-5829f293-2f06-48db-af24-ccacdd249a0e" d="m1682.5,1803.25s1.26-3.27,3.62-9.39c1.19-3.06,2.66-6.83,4.4-11.26,1.74-4.43,3.69-9.53,6.03-15.2,2.39-5.65,5.03-11.9,7.9-18.71,1.45-3.4,2.96-6.94,4.52-10.62,1.57-3.67,3.33-7.41,5.08-11.31,1.77-3.89,3.6-7.9,5.48-12.03.94-2.06,1.9-4.16,2.88-6.28.97-2.12,1.94-4.28,3-6.43,4.21-8.62,8.63-17.69,13.25-27.14,2.34-4.71,4.89-9.45,7.4-14.31,2.54-4.86,5.12-9.81,7.75-14.84,1.29-2.53,2.71-5.02,4.11-7.54,1.41-2.52,2.82-5.06,4.25-7.63,2.86-5.13,5.76-10.33,8.7-15.61,3.04-5.22,6.19-10.47,9.36-15.8,1.59-2.66,3.18-5.35,4.79-8.04.8-1.35,1.61-2.7,2.42-4.06.84-1.34,1.68-2.68,2.52-4.02,3.4-5.37,6.83-10.79,10.3-16.27,1.75-2.73,3.47-5.49,5.26-8.23,1.78-2.71,3.57-5.44,5.37-8.18,3.6-5.48,7.23-11,10.89-16.56.92-1.39,1.83-2.78,2.75-4.17.9-1.4,1.8-2.8,2.7-4.2,1.8-2.8,3.61-5.62,5.42-8.44,3.63-5.65,7.27-11.32,10.94-17.03,3.61-5.75,7.25-11.53,10.89-17.34,7.39-11.55,14.42-23.44,21.73-35.23,3.67-5.88,7.15-11.9,10.73-17.86,3.54-5.98,7.14-11.94,10.65-17.95,3.49-6.02,6.98-12.04,10.47-18.05,1.75-3.01,3.49-6.01,5.23-9.01,1.7-3.03,3.39-6.05,5.09-9.08,3.4-6.04,6.79-12.07,10.17-18.08,3.36-6.03,6.61-12.08,9.9-18.09,3.27-6.02,6.6-11.98,9.71-18.01,3.18-6,6.35-11.96,9.5-17.89.79-1.48,1.57-2.96,2.36-4.44.76-1.49,1.52-2.98,2.28-4.46,1.52-2.97,3.03-5.93,4.53-8.88,2.98-5.91,6.07-11.73,8.98-17.57,2.89-5.85,5.76-11.65,8.61-17.39,1.42-2.87,2.84-5.73,4.25-8.58,1.37-2.86,2.74-5.71,4.1-8.54,2.72-5.66,5.4-11.27,8.06-16.8,1.35-2.76,2.6-5.54,3.87-8.29,1.27-2.75,2.54-5.49,3.79-8.2,2.5-5.43,5.03-10.77,7.42-16.07,2.36-5.31,4.68-10.55,6.97-15.7,4.69-10.25,8.85-20.31,13-29.9,4.23-9.57,7.87-18.9,11.56-27.7.91-2.2,1.81-4.38,2.7-6.52.22-.54.44-1.07.66-1.6l.08-.2c.05-.13.02-.04.05-.12l.15-.4.31-.81c.41-1.07.82-2.14,1.22-3.2.81-2.11,1.61-4.2,2.39-6.25.78-2.05,1.44-4.06,2.15-6.04,5.59-15.86,9.53-30.16,12.4-41.99.69-2.96,1.29-5.79,1.88-8.44.3-1.33.59-2.61.87-3.85.27-1.24.48-2.45.72-3.62.45-2.33.87-4.48,1.25-6.46.19-.99.37-1.93.55-2.83.14-.9.28-1.76.41-2.56,1.08-6.47,1.65-9.92,1.65-9.92,0,0-.19,3.5-.54,10.05-.44,6.55-1.24,16.17-2.95,28.36-1.8,12.18-4.57,26.87-9.08,43.55-.57,2.08-1.1,4.24-1.74,6.34-.64,2.1-1.3,4.24-1.96,6.4-.33,1.08-.67,2.17-1,3.27l-.25.83-.13.41-.16.49c-.18.55-.37,1.1-.56,1.65-.75,2.21-1.5,4.45-2.27,6.73-1.54,4.54-3.12,9.2-4.74,13.96-.82,2.38-1.61,4.8-2.49,7.22-.88,2.42-1.76,4.87-2.65,7.34-3.59,9.89-7.3,20.21-11.45,30.77-2.06,5.29-4.15,10.67-6.27,16.13-2.17,5.44-4.46,10.93-6.74,16.52-1.15,2.79-2.3,5.6-3.47,8.43-1.17,2.82-2.33,5.67-3.59,8.5-2.47,5.68-4.97,11.42-7.49,17.23-1.26,2.9-2.54,5.83-3.81,8.76-1.34,2.91-2.68,5.83-4.03,8.77-2.7,5.88-5.43,11.81-8.18,17.79-11.28,23.79-23.24,48.24-36.26,72.63-3.25,6.1-6.46,12.26-9.77,18.38-3.37,6.09-6.74,12.2-10.13,18.32-1.7,3.06-3.4,6.12-5.1,9.18-1.75,3.04-3.49,6.07-5.24,9.11-3.5,6.08-7,12.16-10.5,18.25-3.56,6.05-7.21,12.04-10.81,18.06-3.63,6-7.16,12.05-10.89,17.97-3.68,5.94-7.37,11.86-11.07,17.75-3.66,5.92-7.45,11.72-11.2,17.53-3.75,5.8-7.49,11.57-11.21,17.32-3.82,5.69-7.62,11.36-11.4,16.99-1.89,2.81-3.78,5.62-5.66,8.41-.94,1.4-1.88,2.79-2.81,4.19-.95,1.38-1.9,2.75-2.84,4.12-3.81,5.46-7.59,10.88-11.34,16.26-1.88,2.69-3.75,5.36-5.61,8.02-1.85,2.64-3.62,5.32-5.42,7.96-3.6,5.29-7.16,10.52-10.69,15.7-.88,1.3-1.76,2.59-2.64,3.88-.85,1.31-1.69,2.61-2.53,3.92-1.68,2.6-3.36,5.19-5.02,7.77-3.33,5.14-6.63,10.23-9.87,15.24-6.26,10.18-12.42,20.05-18.27,29.66-5.72,9.7-11.25,19.07-16.56,28.07-5.15,9.1-10.09,17.81-14.79,26.11-4.65,8.32-8.87,16.32-12.98,23.77-2.03,3.74-4.06,7.33-5.89,10.85-1.84,3.52-3.62,6.91-5.33,10.17-3.44,6.52-6.59,12.5-9.45,17.91-5.58,10.9-9.96,19.47-12.95,25.31-3.02,5.83-4.63,8.94-4.63,8.94Z"/>
      </g>
      <g class="uuid-cdd4c312-4a6d-404d-bb82-e553b57de9de">
        <path class="uuid-d4d5f2a1-41e5-4c8f-865f-0e9b00b5b7fc" d="m1647.11,1787.89s-.42-.56-1.15-1.54c-.52-.71-1.26-1.72-2.15-2.93-.31-.44-.65-.91-1.01-1.41-.23-.34-.48-.7-.74-1.08-.22-.33-.35-.55-.45-.72-.1-.17-.12-.26-.1-.28.02-.02.1.03.24.15.13.12.32.31.58.6.3.34.59.66.87.97.4.47.78.91,1.13,1.32.96,1.16,1.77,2.13,2.33,2.8.78.95,1.22,1.5,1.22,1.5,0,0,.42.56,1.16,1.55.52.71,1.26,1.73,2.16,2.94.31.44.65.91,1.01,1.42.23.34.48.7.74,1.08.21.32.35.55.44.71.09.17.12.25.09.27-.03.01-.1-.03-.25-.17-.14-.13-.32-.31-.59-.6-.3-.34-.59-.67-.87-.98-.4-.47-.78-.91-1.13-1.32-.96-1.16-1.76-2.12-2.32-2.79-.77-.95-1.22-1.49-1.22-1.49Z"/>
      </g>
      <path class="uuid-45230fd9-9dc2-4e4c-b37c-770a2c85f3fa" d="m2058.35,1840.77c234.71-44.76,413.75,49.13,508.73,268.56-45.87-278.37-243.45-391.93-508.73-268.56h0Z"/>
      <path class="uuid-32b54033-f2ef-4155-9fa4-cd1bb01f560d" d="m2503.75,1928.1c-88.43-139.71-247.82-179.03-445.4-87.33,184.49-58.94,332.95-30.55,445.4,87.33h0Z"/>
    </g>
  </g>
</svg>